<svg xmlns="http://www.w3.org/2000/svg" width="18.738" height="18.738" viewBox="0 0 18.738 18.738"><path d="M16.73,0H2.008A2.008,2.008,0,0,0,0,2.008V16.73a2.008,2.008,0,0,0,2.008,2.008H16.73a2.008,2.008,0,0,0,2.008-2.008V2.008A2.008,2.008,0,0,0,16.73,0ZM6.023,14.722H4.015a.669.669,0,1,1,0-1.338H6.023a.669.669,0,1,1,0,1.338Zm0-4.684H4.015a.669.669,0,0,1,0-1.338H6.023a.669.669,0,0,1,0,1.338Zm0-4.684H4.015a.669.669,0,1,1,0-1.338H6.023a.669.669,0,1,1,0,1.338Zm8.7,9.369H8.7a.669.669,0,1,1,0-1.338h6.023a.669.669,0,1,1,0,1.338Zm0-4.684H8.7A.669.669,0,0,1,8.7,8.7h6.023a.669.669,0,1,1,0,1.338Zm0-4.684H8.7a.669.669,0,1,1,0-1.338h6.023a.669.669,0,1,1,0,1.338Z" fill="#fff"/></svg>