<svg xmlns="http://www.w3.org/2000/svg" width="21.927" height="18.738" viewBox="0 0 21.927 18.738">
    <path d="M9.277,63.952a.811.811,0,0,0-.593.25L4.3,68.591H.844a.811.811,0,0,0-.593.25.811.811,0,0,0-.25.593v5.06a.81.81,0,0,0,.25.593.811.811,0,0,0,.593.25H4.3l4.388,4.388a.843.843,0,0,0,1.436-.593V64.8a.855.855,0,0,0-.843-.844Z" transform="translate(0 -62.595)" fill="#fff"/>
    <path d="M261.89,174.035a3.359,3.359,0,0,0,.56-1.864,3.394,3.394,0,0,0-.56-1.872,3.028,3.028,0,0,0-1.482-1.225.736.736,0,0,0-.329-.066.822.822,0,0,0-.593.244.805.805,0,0,0-.25.6.709.709,0,0,0,.158.468,1.536,1.536,0,0,0,.382.329q.224.138.448.3a1.329,1.329,0,0,1,.382.468,1.864,1.864,0,0,1,0,1.5,1.33,1.33,0,0,1-.382.468q-.224.165-.448.3a1.538,1.538,0,0,0-.382.329.711.711,0,0,0-.158.468.8.8,0,0,0,.25.6.822.822,0,0,0,.593.244.738.738,0,0,0,.329-.066A3.116,3.116,0,0,0,261.89,174.035Z" transform="translate(-247.27 -162.801)" fill="#fff"/>
    <path d="M291.944,111.627a6.746,6.746,0,0,0,0-7.446,6.5,6.5,0,0,0-2.965-2.484.949.949,0,0,0-.342-.066.855.855,0,0,0-.844.843.836.836,0,0,0,.514.778,8.182,8.182,0,0,1,1,.58,5.039,5.039,0,0,1,0,8.144,8.17,8.17,0,0,1-1,.58.836.836,0,0,0-.514.778.811.811,0,0,0,.25.593.825.825,0,0,0,.606.251.922.922,0,0,0,.329-.066A6.5,6.5,0,0,0,291.944,111.627Z" transform="translate(-274.51 -98.536)" fill="#fff"/>
    <path d="M322.264,38.354a9.95,9.95,0,0,0-4.454-3.736.949.949,0,0,0-.342-.066.856.856,0,0,0-.844.843.892.892,0,0,0,.514.778,3.062,3.062,0,0,0,.3.138,2.957,2.957,0,0,1,.3.138,10.028,10.028,0,0,1,1.081.672,8.4,8.4,0,0,1,2.53,2.991,8.431,8.431,0,0,1,0,7.617,8.4,8.4,0,0,1-2.53,2.991,10.079,10.079,0,0,1-1.081.672,3.093,3.093,0,0,1-.3.138,2.85,2.85,0,0,0-.3.138.891.891,0,0,0-.514.777.856.856,0,0,0,.844.843.945.945,0,0,0,.342-.066,10.117,10.117,0,0,0,4.454-14.87Z" transform="translate(-302.01 -34.552)" fill="#fff"/>
</svg>